<svg width="93" height="93" viewBox="0 0 93 93" fill="none" xmlns="http://www.w3.org/2000/svg">
<rect width="93" height="93" rx="46.5" fill="#2667FF"/>
<path d="M48.8319 21.5566C49.5315 22.2562 49.7647 22.9558 49.7647 23.8886L49.7647 70.5275C49.7647 72.3931 48.3656 73.7922 46.5 73.7922C44.6344 73.7922 43.2353 72.3931 43.2353 70.5275L43.2353 23.8886C43.2353 22.023 44.6344 20.6238 46.5 20.6238C47.4328 20.6238 48.1324 20.857 48.8319 21.5566Z" fill="white"/>
<path d="M48.8319 21.5564L69.8195 42.544C71.2186 43.9431 71.2186 45.8087 69.8195 47.2079C68.4203 48.607 66.5547 48.607 65.1556 47.2079L46.5 28.5523L27.8444 47.2079C26.4452 48.607 24.5797 48.607 23.1805 47.2079C21.7814 45.8087 21.7814 43.9431 23.1805 42.544L44.168 21.5564C45.5672 20.1573 47.4328 20.1573 48.8319 21.5564Z" fill="white"/>
</svg>
